<svg id="Layer_1" data-name="Layer 1" xmlns="http://www.w3.org/2000/svg" viewBox="0 0 627.97 148.4"><defs><style>.cls-1{fill:#ad2a4b;stroke:#ad2a4b;stroke-miterlimit:10;stroke-width:1.5px;}</style></defs><path class="cls-1" d="M478.45,478.28a2.58,2.58,0,1,0,3.09,2A2.58,2.58,0,0,0,478.45,478.28Z" transform="translate(-265.8 -341.24)"/><path class="cls-1" d="M489.13,472.47a2.58,2.58,0,1,0,3.09,2A2.59,2.59,0,0,0,489.13,472.47Z" transform="translate(-265.8 -341.24)"/><path class="cls-1" d="M498.3,465.41a2.59,2.59,0,1,0,3.09,2A2.59,2.59,0,0,0,498.3,465.41Z" transform="translate(-265.8 -341.24)"/><path class="cls-1" d="M506.17,456.81a2.58,2.58,0,1,0,3.09,1.95A2.57,2.57,0,0,0,506.17,456.81Z" transform="translate(-265.8 -341.24)"/><path class="cls-1" d="M512.79,446a2.59,2.59,0,1,0,3.09,2A2.59,2.59,0,0,0,512.79,446Z" transform="translate(-265.8 -341.24)"/><path class="cls-1" d="M793.83,439.43a2.59,2.59,0,1,0-2.68,2.48A2.58,2.58,0,0,0,793.83,439.43Z" transform="translate(-265.8 -341.24)"/><path class="cls-1" d="M793.46,448.56a2.58,2.58,0,1,0,2.48,2.68A2.57,2.57,0,0,0,793.46,448.56Z" transform="translate(-265.8 -341.24)"/><path class="cls-1" d="M798.28,459.65a2.58,2.58,0,1,0,2.49,2.68A2.59,2.59,0,0,0,798.28,459.65Z" transform="translate(-265.8 -341.24)"/><path class="cls-1" d="M805,469a2.59,2.59,0,1,0,2.48,2.68A2.58,2.58,0,0,0,805,469Z" transform="translate(-265.8 -341.24)"/><path class="cls-1" d="M814,477.32a2.58,2.58,0,1,0,2.49,2.68A2.58,2.58,0,0,0,814,477.32Z" transform="translate(-265.8 -341.24)"/><path class="cls-1" d="M662,365.87a2.58,2.58,0,1,0-3.61-.56A2.58,2.58,0,0,0,662,365.87Z" transform="translate(-265.8 -341.24)"/><path class="cls-1" d="M652.87,358.59a2.59,2.59,0,1,0-3.61-.57A2.6,2.6,0,0,0,652.87,358.59Z" transform="translate(-265.8 -341.24)"/><path class="cls-1" d="M642.33,352.77a2.58,2.58,0,1,0-3.61-.56A2.58,2.58,0,0,0,642.33,352.77Z" transform="translate(-265.8 -341.24)"/><path class="cls-1" d="M631.31,348.83a2.58,2.58,0,1,0-3.61-.56A2.58,2.58,0,0,0,631.31,348.83Z" transform="translate(-265.8 -341.24)"/><path class="cls-1" d="M619.51,346.66a2.59,2.59,0,1,0-3.61-.57A2.59,2.59,0,0,0,619.51,346.66Z" transform="translate(-265.8 -341.24)"/><polygon class="cls-1" points="15.4 74.41 15.4 147.65 17.23 147.65 17.23 76.24 88.64 76.24 88.64 74.41 17.23 74.41 15.4 74.41"/><path class="cls-1" d="M500.84,444.87a58.65,58.65,0,0,0-.22-58.59,54.77,54.77,0,0,0-21.93-21.65,58.45,58.45,0,0,0-57.57,0,54.25,54.25,0,0,0-21.87,21.65,58.91,58.91,0,0,0-.14,58.59,54.52,54.52,0,0,0,21.68,21.64,59,59,0,0,0,58.37,0A54.52,54.52,0,0,0,500.84,444.87ZM450,472.41a57.8,57.8,0,0,1-28.27-7.47,52.55,52.55,0,0,1-21-21,57.15,57.15,0,0,1,.15-56.76,52.21,52.21,0,0,1,21.17-21,56.78,56.78,0,0,1,55.81,0,52.75,52.75,0,0,1,21.24,21,56.92,56.92,0,0,1,.22,56.76,52.55,52.55,0,0,1-21,21A57.81,57.81,0,0,1,450,472.41Z" transform="translate(-265.8 -341.24)"/><path class="cls-1" d="M560.46,386.28a58.91,58.91,0,0,0-.14,58.59A54.49,54.49,0,0,0,582,466.51a59,59,0,0,0,58.42,0,55.89,55.89,0,0,0,12.37-9.31l-1.32-1.24a51.59,51.59,0,0,1-12,9,57.23,57.23,0,0,1-56.54,0,52.55,52.55,0,0,1-21-21,57.15,57.15,0,0,1,.15-56.76,52.18,52.18,0,0,1,21.16-21,56.78,56.78,0,0,1,55.81,0,50.62,50.62,0,0,1,12.45,9.23l1.25-1.32a52.73,52.73,0,0,0-12.82-9.52,58.55,58.55,0,0,0-57.57,0A54.29,54.29,0,0,0,560.46,386.28Z" transform="translate(-265.8 -341.24)"/><path class="cls-1" d="M702.66,342.42l-1.83,0v41.2h1.83Z" transform="translate(-265.8 -341.24)"/><path class="cls-1" d="M704,449.45a22.33,22.33,0,0,0,8.79,8.82,24,24,0,0,0,11.86,3.15,24.22,24.22,0,0,0,11.94-3.18,21.9,21.9,0,0,0,8.79-8.9,24.47,24.47,0,0,0,3.08-11.72h-.08V342.4h-1.83v95.22h.08a22.5,22.5,0,0,1-2.82,10.8,20.18,20.18,0,0,1-8.13,8.2,22.08,22.08,0,0,1-22,.08,20.39,20.39,0,0,1-8.13-8.13,22.4,22.4,0,0,1-2.85-9.79h-1.83A24.2,24.2,0,0,0,704,449.45Z" transform="translate(-265.8 -341.24)"/><path class="cls-1" d="M772.17,437.62h.07a48.81,48.81,0,0,1-6.15,23.47,43.7,43.7,0,0,1-17.58,17.76,48,48,0,0,1-47.61.11,44.24,44.24,0,0,1-17.57-17.61,48.14,48.14,0,0,1-6.3-23.73V342.4h-3.67v95.22a51.78,51.78,0,0,0,6.78,25.52,48,48,0,0,0,18.93,19,51.49,51.49,0,0,0,51.27-.11,47.37,47.37,0,0,0,18.93-19.11,52.4,52.4,0,0,0,6.63-25.27V342.4h-3.73Z" transform="translate(-265.8 -341.24)"/><path class="cls-1" d="M706.4,469.41a36.86,36.86,0,0,0,36.62-.08,33.65,33.65,0,0,0,13.51-13.66,37.52,37.52,0,0,0,4.72-18.05h-.07V342.4h-1.83v95.22h.07a35.73,35.73,0,0,1-4.5,17.14,32,32,0,0,1-12.85,13,35.09,35.09,0,0,1-34.79.07,32.17,32.17,0,0,1-12.86-12.89,35.46,35.46,0,0,1-4.58-17.32V342.48H688v95.14a37,37,0,0,0,4.84,18.24A34.1,34.1,0,0,0,706.4,469.41Z" transform="translate(-265.8 -341.24)"/><path class="cls-1" d="M633.08,453.8a44.63,44.63,0,0,1-21.9,5.79c-.8,0-1.59,0-2.38-.08v1.84c.79,0,1.58.07,2.38.07A46.12,46.12,0,0,0,634,455.34a41.27,41.27,0,0,0,9.67-7.25l-1.25-1.24A41.51,41.51,0,0,1,633.08,453.8Z" transform="translate(-265.8 -341.24)"/><path class="cls-1" d="M633.67,375.73a46.12,46.12,0,0,0-45,0,42.29,42.29,0,0,0-17.06,16.92,46.53,46.53,0,0,0-6.15,23c0,.3,0,.61,0,.91h1.84c0-.3,0-.61,0-.91a44.56,44.56,0,0,1,5.89-22,40.48,40.48,0,0,1,16.41-16.22,44.14,44.14,0,0,1,43.25,0,42.11,42.11,0,0,1,9.59,7.18l1.32-1.32A43.61,43.61,0,0,0,633.67,375.73Z" transform="translate(-265.8 -341.24)"/><path class="cls-1" d="M823.51,410.81a37.24,37.24,0,0,0,18.31,4.84,21.69,21.69,0,0,1,10.77,2.78,20.19,20.19,0,0,1,8.2,8.13,22.06,22.06,0,0,1,0,21.9,20.41,20.41,0,0,1-8.13,8.09,22.31,22.31,0,0,1-11,2.89v.08a22,22,0,0,1-10.92-2.93,20.08,20.08,0,0,1-8.16-8.1,22.31,22.31,0,0,1-2.89-10.95l-3.67.08a25.89,25.89,0,0,0,3.41,12.82,23.89,23.89,0,0,0,9.52,9.44,26.1,26.1,0,0,0,12.78,3.37v-.07a26.47,26.47,0,0,0,12.75-3.33,23.08,23.08,0,0,0,9.48-9.45,26.1,26.1,0,0,0-.07-25.64,23.28,23.28,0,0,0-9.56-9.48,26.35,26.35,0,0,0-12.6-3.3,33.63,33.63,0,0,1-16.51-4.35,30.63,30.63,0,0,1-12.2-12.16,33.17,33.17,0,0,1,.11-32.93,30.41,30.41,0,0,1,12.3-12.15,33.8,33.8,0,0,1,16.23-4.25v-.07A33.78,33.78,0,0,1,858,350.31a30.72,30.72,0,0,1,12.34,12.16c.3.64.59,1.25.88,1.83l3.3-1.61c-.3-.68-.64-1.36-1-2.05a33.65,33.65,0,0,0-13.66-13.51,37.53,37.53,0,0,0-18-4.73v.08a37.58,37.58,0,0,0-18.06,4.72A33.71,33.71,0,0,0,810,360.71,36.83,36.83,0,0,0,810,397.3,34.2,34.2,0,0,0,823.51,410.81Z" transform="translate(-265.8 -341.24)"/><path class="cls-1" d="M831.82,361.52a20.81,20.81,0,0,1,9.93-2.56v-.08a20.62,20.62,0,0,1,9.92,2.6,18.67,18.67,0,0,1,7.51,7.44c.19.39.39.75.59,1.1l1.61-.81-.59-1.17a20.19,20.19,0,0,0-8.2-8.13,22.45,22.45,0,0,0-10.84-2.86v.07a22.82,22.82,0,0,0-10.84,2.82,20.08,20.08,0,0,0-8.21,8.1,22.15,22.15,0,0,0,0,21.93,20.26,20.26,0,0,0,8.13,8.13,22.44,22.44,0,0,0,11,2.9,36.76,36.76,0,0,1,18.06,4.68,34.11,34.11,0,0,1,13.66,13.52,37.23,37.23,0,0,1,4.87,17.44h1.83a39,39,0,0,0-5.13-18.28,35.52,35.52,0,0,0-14.36-14.21,39.25,39.25,0,0,0-18.93-5,20.57,20.57,0,0,1-10.11-2.68,18.74,18.74,0,0,1-7.47-7.43,20.27,20.27,0,0,1,.08-20.11A18.32,18.32,0,0,1,831.82,361.52Z" transform="translate(-265.8 -341.24)"/><path class="cls-1" d="M493.92,415.65a44.58,44.58,0,0,1-5.79,21.93,40.61,40.61,0,0,1-16.26,16.22,44.29,44.29,0,0,1-43.79,0,40.61,40.61,0,0,1-16.26-16.22,44.29,44.29,0,0,1,.11-44,40.46,40.46,0,0,1,16.4-16.22A45,45,0,0,1,450,371.7v-1.83a46.84,46.84,0,0,0-22.55,5.89,42.25,42.25,0,0,0-17.07,16.92,46,46,0,0,0-.11,45.78,42.67,42.67,0,0,0,17,16.92,46,46,0,0,0,45.55,0,42.67,42.67,0,0,0,17-16.92,46.3,46.3,0,0,0,6-22.81Z" transform="translate(-265.8 -341.24)"/><path class="cls-1" d="M841.75,474.16a37.38,37.38,0,0,1-18.17-4.83A33.83,33.83,0,0,1,810,455.82a37.08,37.08,0,0,1-4.8-18.2h-1.83a38.93,38.93,0,0,0,5,19.15A35.84,35.84,0,0,0,822.63,471a38.92,38.92,0,0,0,19.12,5.09Z" transform="translate(-265.8 -341.24)"/><polygon class="cls-1" points="28.22 147.65 30.05 147.65 30.05 89.06 88.64 89.06 88.64 87.23 28.22 87.23 28.22 147.65"/><polygon class="cls-1" points="15.4 17.72 17.23 17.72 103.29 17.65 103.29 15.82 15.4 15.89 15.4 17.72"/><polygon class="cls-1" points="28.14 63.42 88.64 63.42 88.64 59.76 30.05 59.76 30.05 30.46 103.29 30.46 103.29 28.63 28.14 28.71 28.14 63.42"/><polygon class="cls-1" points="0.75 147.65 4.41 147.65 4.41 4.9 103.29 4.83 103.29 1.17 0.75 1.17 0.75 147.65"/><path class="cls-1" d="M886.13,412A47.35,47.35,0,0,0,867,393a52.76,52.76,0,0,0-22.31-6.54v1.82a50.48,50.48,0,0,1,21.46,6.25,45.66,45.66,0,0,1,18.46,18.32,49.61,49.61,0,0,1,.11,49.36,45.72,45.72,0,0,1-18.31,18.24,50.4,50.4,0,0,1-24.61,6.48V487a49.35,49.35,0,0,1-17.56-3.24l-.61,1.81a51.08,51.08,0,0,0,18.17,3.34,52.16,52.16,0,0,0,25.49-6.74,47.35,47.35,0,0,0,19-18.93,51.62,51.62,0,0,0-.15-51.27Z" transform="translate(-265.8 -341.24)"/><path class="cls-1" d="M645.83,476a69.73,69.73,0,0,1-69.29,0,65,65,0,0,1-25.75-25.7,70,70,0,0,1,.15-69.59,64,64,0,0,1,26-25.7A71.94,71.94,0,0,1,607,346.19l-.1-3.66a75.83,75.83,0,0,0-31.82,9.32,67.4,67.4,0,0,0-27.32,27.06,73.73,73.73,0,0,0-.14,73.25,68.36,68.36,0,0,0,27.1,27.06,73.63,73.63,0,0,0,72.95,0,69.08,69.08,0,0,0,15.52-11.65l-2.63-2.63A67,67,0,0,1,645.83,476Z" transform="translate(-265.8 -341.24)"/><path class="cls-1" d="M485.86,351.85a73.28,73.28,0,0,0-72,0,67.34,67.34,0,0,0-27.32,27.06,73.7,73.7,0,0,0-.15,73.25,68.43,68.43,0,0,0,27.1,27.06,74.07,74.07,0,0,0,36.4,9.67,72.66,72.66,0,0,0,18-2.26l-1-3.52a69.29,69.29,0,0,1-17,2.12,70.25,70.25,0,0,1-34.57-9.2,64.94,64.94,0,0,1-25.74-25.7,70.17,70.17,0,0,1-9.2-34.61,70.88,70.88,0,0,1,9.34-35,64.06,64.06,0,0,1,26-25.7,69.7,69.7,0,0,1,68.41,0,64.51,64.51,0,0,1,26,25.7,70.35,70.35,0,0,1,9.42,35A68.64,68.64,0,0,1,516,437.56l3.51,1.05a72.29,72.29,0,0,0,3.71-22.89,74,74,0,0,0-9.93-36.81A68,68,0,0,0,485.86,351.85Z" transform="translate(-265.8 -341.24)"/></svg>