<svg xmlns="http://www.w3.org/2000/svg" version="1.0" width="600.000pt" height="500.0000pt" viewBox="0 0 546.000000 457.000000" preserveAspectRatio="xMidYMid meet">

<g transform="translate(0.000000,457.000000) scale(0.100000,-0.100000)" fill="#ff178f" stroke="none">
<path d="M689 2975 c-1 -245 -2 -453 -3 -462 0 -10 7 -19 17 -21 16 -3 17 23 17 447 l0 451 310 0 c269 0 310 2 310 15 0 13 -43 15 -325 15 l-325 0 -1 -445z" fill="#ff178f"/>
<path d="M1751 3409 c-77 -15 -182 -72 -239 -130 -173 -176 -175 -459 -4 -641 85 -91 197 -139 327 -140 88 -1 128 7 122 25 -3 7 -11 10 -18 8 -36 -10 -170 -3 -221 12 -74 22 -174 90 -218 149 -134 180 -113 430 49 581 107 98 267 140 396 102 139 -40 227 -111 285 -229 48 -99 56 -190 28 -316 -2 -8 4 -15 12 -15 10 0 19 19 28 60 22 106 -10 252 -78 350 -98 142 -294 219 -469 184z" fill="#ff178f"/>
<path d="M2741 3404 c-81 -22 -165 -71 -220 -129 -221 -233 -141 -620 155 -743 65 -27 171 -44 226 -36 96 13 221 67 262 113 36 40 4 38 -57 -3 -229 -154 -528 -75 -643 168 -57 122 -54 252 11 383 57 116 166 198 300 225 34 7 55 16 55 24 0 17 -20 17 -89 -2z" fill="#ff178f"/>
<path d="M2882 3403 c2 -10 10 -18 18 -18 22 0 18 29 -3 33 -14 3 -18 -1 -15 -15z" fill="#ff178f"/>
<path d="M3240 3123 c-1 -387 10 -443 100 -533 172 -172 461 -100 541 135 11 31 14 117 14 365 0 301 -1 325 -17 328 -17 3 -18 -18 -18 -335 0 -382 0 -380 -79 -466 -83 -90 -220 -117 -331 -66 -69 32 -115 78 -149 149 l-26 55 -3 333 c-3 272 -6 332 -17 332 -11 0 -14 -53 -15 -297z" fill="#ff178f"/>
<path d="M3339 3418 c0 -2 -1 -149 -1 -328 -2 -320 -1 -326 21 -373 42 -85 111 -127 211 -127 44 0 73 7 108 24 57 29 75 48 101 106 19 42 21 65 21 373 0 211 -4 327 -10 327 -6 0 -10 -116 -10 -328 0 -325 0 -329 -23 -373 -34 -64 -93 -102 -166 -107 -99 -7 -171 30 -211 109 -19 36 -20 60 -20 363 0 206 -4 327 -10 331 -5 3 -10 5 -11 3z" fill="#ff178f"/>
<path d="M3420 3284 c0 -76 2 -135 5 -132 10 10 15 257 5 263 -6 4 -10 -43 -10 -131z" fill="#ff178f"/>
<path d="M3700 3099 c0 -279 -2 -325 -16 -349 -23 -38 -64 -60 -114 -60 -69 0 -105 31 -136 115 -7 19 -8 19 -11 -2 -5 -26 16 -70 49 -100 48 -45 147 -46 195 -2 52 50 53 54 53 399 0 207 -4 320 -10 320 -6 0 -10 -114 -10 -321z" fill="#ff178f"/>
<path d="M4223 3404 c-127 -46 -186 -201 -124 -322 38 -73 99 -113 196 -127 66 -10 102 -29 125 -68 38 -62 13 -152 -50 -184 -71 -36 -164 0 -190 75 -8 23 -20 42 -27 42 -32 0 0 -84 46 -123 85 -71 204 -48 252 50 26 53 22 120 -8 162 -29 38 -82 71 -115 71 -147 0 -254 127 -218 260 23 84 113 150 206 150 43 0 131 -47 151 -81 10 -16 23 -29 30 -29 37 0 -11 70 -73 106 -55 33 -141 40 -201 18z" fill="#ff178f"/>
<path d="M2955 3401 c-8 -15 3 -31 21 -31 9 0 14 7 12 17 -4 20 -24 28 -33 14z" fill="#ff178f"/>
<path d="M3027 3374 c-9 -10 2 -24 19 -24 8 0 14 7 14 15 0 15 -21 21 -33 9z" fill="#ff178f"/>
<path d="M3097 3344 c-14 -14 -7 -35 11 -32 9 2 17 10 17 17 0 16 -18 25 -28 15z" fill="#ff178f"/>
<path d="M780 3320 c0 -6 100 -10 280 -10 180 0 280 4 280 10 0 6 -100 10 -280 10 -180 0 -280 -4 -280 -10z" fill="#ff178f"/>
<path d="M1757 3320 c-110 -28 -201 -103 -250 -208 -29 -60 -32 -77 -32 -157 0 -76 5 -99 27 -147 108 -232 398 -292 595 -123 81 69 130 213 112 328 -12 72 -62 168 -110 212 -89 80 -237 121 -342 95z m233 -46 c212 -95 270 -379 114 -553 -199 -222 -579 -100 -610 196 -29 274 245 470 496 357z" fill="#ff178f"/>
<path d="M1765 3236 c-63 -20 -100 -42 -135 -82 -130 -148 -92 -363 79 -451 54 -28 73 -33 134 -33 113 1 209 57 258 153 24 45 39 144 21 133 -7 -4 -12 -22 -12 -40 0 -76 -77 -175 -166 -212 -96 -40 -233 -8 -304 73 -140 159 -58 402 151 445 32 6 56 15 53 20 -7 11 -31 9 -79 -6z" fill="#ff178f"/>
<path d="M2760 3314 c-182 -49 -299 -228 -269 -414 32 -204 213 -336 422 -308 80 11 217 84 202 108 -3 5 -26 -6 -50 -24 -173 -133 -430 -68 -527 132 -28 59 -32 77 -32 147 0 69 5 90 31 146 38 82 89 133 168 171 120 56 249 44 361 -33 44 -30 54 -34 54 -21 0 16 -100 74 -159 93 -74 22 -125 23 -201 3z" fill="#ff178f"/>
<path d="M4243 3311 c-85 -39 -103 -152 -36 -223 18 -19 44 -31 82 -38 104 -21 131 -31 165 -61 40 -34 76 -103 76 -142 0 -15 5 -27 11 -27 19 0 1 81 -29 130 -36 58 -101 98 -181 111 -83 13 -115 30 -135 73 -20 42 -20 57 -2 101 17 40 68 75 109 75 35 0 81 -23 101 -52 19 -27 32 -18 16 11 -13 25 -80 61 -112 61 -13 0 -42 -9 -65 -19z" fill="#ff178f"/>
<path d="M3152 3284 c4 -21 22 -23 26 -1 2 10 -3 17 -13 17 -10 0 -15 -6 -13 -16z" fill="#ff178f"/>
<path d="M860 3135 l0 -115 195 0 c167 0 195 2 195 15 0 13 -27 15 -185 15 l-185 0 0 90 0 90 230 0 c147 0 230 4 230 10 0 6 -87 10 -240 10 l-240 0 0 -115z" fill="#ff178f"/>
<path d="M2780 3237 c-92 -26 -150 -77 -188 -168 -22 -50 -35 -119 -22 -119 4 0 11 17 15 38 26 140 139 242 270 242 48 0 122 -25 161 -55 36 -28 57 -28 34 0 -22 27 -114 64 -170 70 -31 3 -75 -1 -100 -8z" fill="#ff178f"/>
<path d="M4324 3131 c3 -4 24 -11 47 -15 214 -34 312 -308 175 -488 -63 -82 -196 -130 -298 -108 -48 10 -69 8 -56 -6 4 -3 35 -10 70 -16 56 -10 72 -9 135 10 89 28 168 95 204 174 36 80 34 202 -4 280 -34 70 -101 130 -173 158 -56 21 -109 27 -100 11z" fill="#ff178f"/>
<path d="M780 2725 c0 -150 4 -235 10 -235 6 0 10 82 10 225 l0 225 225 0 c143 0 225 4 225 10 0 6 -85 10 -235 10 l-235 0 0 -235z" fill="#ff178f"/>
<path d="M860 2685 c0 -123 4 -195 10 -195 6 0 10 68 10 185 l0 185 185 0 c117 0 185 4 185 10 0 6 -72 10 -195 10 l-195 0 0 -195z" fill="#ff178f"/>
<path d="M3974 2819 c-8 -14 11 -33 25 -25 6 4 11 11 11 16 0 13 -29 20 -36 9z" fill="#ff178f"/>
<path d="M4060 2807 c0 -32 30 -111 55 -143 31 -40 93 -75 153 -84 58 -9 53 3 -8 19 -72 18 -127 62 -156 124 -13 29 -24 62 -24 75 0 12 -4 22 -10 22 -5 0 -10 -6 -10 -13z" fill="#ff178f"/>
<path d="M2224 2759 c-8 -14 11 -33 25 -25 6 4 11 14 11 22 0 16 -26 19 -36 3z" fill="#ff178f"/>
<path d="M3034 2749 c-11 -18 -107 -59 -139 -59 -16 0 -37 -5 -45 -10 -11 -7 -2 -10 32 -10 49 0 167 52 176 78 5 15 -14 16 -24 1z" fill="#ff178f"/>
<path d="M3984 2739 c-3 -6 -2 -15 4 -21 13 -13 32 -2 32 18 0 16 -26 19 -36 3z" fill="#ff178f"/>
<path d="M2182 2683 c2 -10 10 -18 18 -18 22 0 18 29 -3 33 -14 3 -18 -1 -15 -15z" fill="#ff178f"/>
<path d="M4017 2673 c-13 -12 -7 -23 13 -23 11 0 20 7 20 15 0 15 -21 21 -33 8z" fill="#ff178f"/>
<path d="M2134 2639 c-10 -17 13 -36 27 -22 12 12 4 33 -11 33 -5 0 -12 -5 -16 -11z" fill="#ff178f"/>
<path d="M4061 2616 c-12 -14 -5 -26 16 -26 15 0 18 26 4 34 -5 3 -14 0 -20 -8z" fill="#ff178f"/>
<path d="M2077 2594 c-9 -10 2 -24 19 -24 8 0 14 7 14 15 0 15 -21 21 -33 9z" fill="#ff178f"/>
<path d="M2011 2557 c-12 -15 -5 -27 16 -27 7 0 13 9 13 20 0 23 -13 26 -29 7z" fill="#ff178f"/>
<path d="M4114 2559 c-8 -14 11 -33 25 -25 16 10 13 36 -3 36 -8 0 -18 -5 -22 -11z" fill="#ff178f"/>
</g>
</svg>