<svg id="SvgjsSvg1001" width="288" height="288" xmlns="http://www.w3.org/2000/svg" version="1.1" xmlns:xlink="http://www.w3.org/1999/xlink" xmlns:svgjs="http://svgjs.com/svgjs"><defs id="SvgjsDefs1002"></defs><g id="SvgjsG1008"><svg xmlns="http://www.w3.org/2000/svg" enable-background="new 0 0 1191 842" viewBox="0 0 1191 842" width="288" height="288"><defs><rect id="a" width="1191" height="842" fill="#ffffff" class="color000 svgShape"></rect></defs><path fill="#ad2a4a" stroke="#ad2a4b" stroke-miterlimit="10" stroke-width="1.5" d="M494.17 363.97c-1.39.31-2.27 1.7-1.95 3.09.31 1.39 1.7 2.27 3.09 1.95 1.39-.31 2.27-1.7 1.95-3.09C496.94 364.53 495.56 363.66 494.17 363.97zM504.85 358.16c-1.39.31-2.27 1.7-1.95 3.09.31 1.39 1.7 2.27 3.09 1.95 1.39-.31 2.27-1.7 1.95-3.09C507.62 358.72 506.24 357.85 504.85 358.16zM514.02 351.1c-1.39.31-2.27 1.7-1.95 3.09.31 1.39 1.7 2.27 3.09 1.95s2.27-1.7 1.95-3.09C516.8 351.66 515.41 350.79 514.02 351.1zM521.89 342.5c-1.39.31-2.27 1.7-1.95 3.09.31 1.39 1.7 2.27 3.09 1.95 1.39-.31 2.27-1.7 1.95-3.09C524.66 343.06 523.28 342.18 521.89 342.5zM528.51 331.73c-1.39.31-2.27 1.7-1.95 3.09.31 1.39 1.7 2.27 3.09 1.95 1.39-.31 2.27-1.7 1.95-3.09C531.28 332.29 529.9 331.42 528.51 331.73zM809.55 325.12c.05-1.43-1.06-2.63-2.49-2.68-1.43-.05-2.63 1.06-2.68 2.49-.05 1.43 1.06 2.63 2.49 2.68C808.29 327.66 809.49 326.54 809.55 325.12zM809.18 334.25c-1.43-.05-2.63 1.06-2.68 2.49s1.06 2.63 2.49 2.68c1.43.05 2.63-1.06 2.68-2.49C811.72 335.5 810.6 334.3 809.18 334.25zM814 345.34c-1.43-.05-2.63 1.06-2.68 2.49-.05 1.43 1.06 2.63 2.49 2.68 1.43.05 2.63-1.06 2.68-2.49C816.54 346.59 815.43 345.39 814 345.34zM820.72 354.73c-1.43-.05-2.63 1.06-2.68 2.49-.05 1.43 1.06 2.63 2.49 2.68 1.43.05 2.63-1.06 2.68-2.49S822.14 354.79 820.72 354.73zM829.69 363c-1.43-.05-2.63 1.06-2.68 2.49s1.06 2.63 2.49 2.68c1.43.05 2.63-1.06 2.68-2.49C832.23 364.26 831.12 363.06 829.69 363zM677.75 251.56c1.15-.84 1.41-2.46.56-3.61-.84-1.15-2.46-1.41-3.61-.56-1.15.84-1.41 2.46-.56 3.61C674.98 252.15 676.6 252.4 677.75 251.56zM668.59 244.28c1.15-.84 1.41-2.46.56-3.61-.84-1.15-2.46-1.41-3.61-.56-1.15.84-1.41 2.46-.56 3.61C665.82 244.86 667.43 245.12 668.59 244.28zM658.05 238.46c1.15-.84 1.41-2.46.56-3.61s-2.46-1.41-3.61-.56c-1.15.84-1.41 2.46-.56 3.61C655.28 239.05 656.9 239.31 658.05 238.46zM647.03 234.52c1.15-.84 1.41-2.46.56-3.61-.84-1.15-2.46-1.41-3.61-.56-1.15.84-1.41 2.46-.56 3.61C644.26 235.11 645.87 235.36 647.03 234.52zM635.23 232.35c1.15-.84 1.41-2.46.56-3.61-.84-1.15-2.46-1.41-3.61-.56-1.15.84-1.41 2.46-.56 3.61C632.46 232.94 634.07 233.19 635.23 232.35z" class="colorad2a4a svgShape colorStrokead2a4b svgStroke"></path><polygon fill="#ad2a4a" stroke="#ad2a4b" stroke-miterlimit="10" stroke-width="1.5" points="296.91 301.34 296.91 374.58 298.74 374.58 298.74 303.17 370.15 303.17 370.15 301.34 298.74 301.34" class="colorad2a4a svgShape colorStrokead2a4b svgStroke"></polygon><path fill="#ad2a4a" stroke="#ad2a4b" stroke-miterlimit="10" stroke-width="1.5" d="M516.56 330.56c5.15-9.28 7.73-18.99 7.73-29.15 0-10.25-2.65-20.07-7.95-29.44-5.3-9.38-12.61-16.59-21.94-21.64-9.33-5.05-18.9-7.58-28.71-7.58-9.91 0-19.53 2.53-28.86 7.58-9.33 5.05-16.61 12.27-21.86 21.64-5.25 9.38-7.87 19.19-7.87 29.44 0 10.16 2.57 19.87 7.73 29.15 5.15 9.28 12.38 16.49 21.68 21.64s19.03 7.73 29.19 7.73c10.16 0 19.89-2.58 29.19-7.73S511.41 339.84 516.56 330.56zM465.69 358.1c-9.81 0-19.24-2.49-28.27-7.47-9.03-4.98-16.04-11.98-21.02-20.98-4.98-9.01-7.47-18.42-7.47-28.24 0-9.91 2.54-19.42 7.62-28.53 5.08-9.11 12.13-16.1 21.17-20.98 9.03-4.88 18.36-7.32 27.98-7.32 9.52 0 18.8 2.44 27.83 7.32 9.03 4.88 16.11 11.88 21.24 20.98 5.13 9.11 7.69 18.62 7.69 28.53 0 9.81-2.49 19.23-7.47 28.24-4.98 9.01-11.99 16-21.02 20.98C484.93 355.61 475.51 358.1 465.69 358.1zM576.18 271.96c-5.25 9.38-7.87 19.19-7.87 29.44 0 10.16 2.58 19.87 7.73 29.15 5.15 9.28 12.38 16.49 21.68 21.64 9.3 5.15 19.03 7.73 29.19 7.73 10.16 0 19.9-2.59 29.22-7.76 4.64-2.59 8.76-5.69 12.38-9.3l-1.32-1.25c-3.47 3.52-7.47 6.52-12.01 9.01-9.03 4.98-18.46 7.47-28.27 7.47s-19.24-2.49-28.27-7.47c-9.03-4.98-16.04-11.98-21.02-20.98-4.98-9.01-7.47-18.42-7.47-28.24 0-9.91 2.54-19.42 7.62-28.53 5.08-9.11 12.13-16.1 21.17-20.98 9.03-4.88 18.36-7.32 27.98-7.32 9.52 0 18.8 2.44 27.83 7.32 4.69 2.49 8.84 5.57 12.45 9.23l1.25-1.32c-3.71-3.76-7.98-6.93-12.82-9.52-9.33-5.03-18.9-7.54-28.71-7.54-9.91 0-19.53 2.53-28.86 7.58C588.72 255.38 581.43 262.59 576.18 271.96zM718.38 228.11c-.61-.01-1.22-.01-1.83-.02v41.2h1.83C718.38 255.57 718.38 241.84 718.38 228.11zM719.7 335.14c2.1 3.79 5.03 6.73 8.79 8.83 3.76 2.1 7.71 3.15 11.87 3.15 4.15 0 8.13-1.06 11.94-3.19 3.81-2.12 6.74-5.09 8.79-8.9s3.08-7.71 3.08-11.72h-.07v-95.21h-1.83v95.21h.07c0 3.71-.94 7.31-2.82 10.8-1.88 3.49-4.59 6.23-8.13 8.2-3.54 1.98-7.21 2.97-11.02 2.97s-7.46-.96-10.95-2.89c-3.49-1.93-6.2-4.64-8.13-8.13-1.73-3.13-2.68-6.4-2.86-9.79h-1.83C716.77 328.15 717.8 331.71 719.7 335.14z" class="colorad2a4a svgShape colorStrokead2a4b svgStroke"></path><path fill="#ad2a4a" stroke="#ad2a4b" stroke-miterlimit="10" stroke-width="1.5" d="M787.89,323.31h0.07c0,8.06-2.05,15.88-6.15,23.47s-9.96,13.51-17.58,17.76s-15.58,6.37-23.88,6.37
		c-8.3,0-16.21-2.09-23.73-6.26c-7.52-4.18-13.38-10.05-17.58-17.62c-4.2-7.57-6.3-15.48-6.3-23.73v-95.21h-3.66v95.21
		c0,8.89,2.26,17.39,6.78,25.53c4.52,8.13,10.83,14.45,18.93,18.97c8.1,4.52,16.63,6.78,25.56,6.78s17.5-2.29,25.71-6.88
		c8.2-4.59,14.51-10.96,18.93-19.12c4.42-8.15,6.63-16.58,6.63-25.27v-95.21h-3.74V323.31z" class="colorad2a4a svgShape colorStrokead2a4b svgStroke"></path><path fill="#ad2a4a" stroke="#ad2a4b" stroke-miterlimit="10" stroke-width="1.5" d="M722.11 355.09c5.81 3.22 11.89 4.83 18.24 4.83 6.4 0 12.52-1.64 18.38-4.91 5.86-3.27 10.36-7.82 13.51-13.66 3.15-5.83 4.72-11.85 4.72-18.05h-.07v-95.21h-1.83v95.21h.07c0 5.86-1.5 11.57-4.5 17.14-3 5.57-7.29 9.9-12.85 13-5.57 3.1-11.38 4.65-17.43 4.65-6.05 0-11.84-1.53-17.36-4.58-5.52-3.05-9.8-7.35-12.85-12.89s-4.58-11.32-4.58-17.32v-95.14h-1.83v95.14c0 6.35 1.61 12.43 4.83 18.24C711.79 347.36 716.3 351.87 722.11 355.09zM648.8 339.49c-6.98 3.86-14.28 5.79-21.9 5.79-.8 0-1.59-.03-2.39-.08v1.83c.79.04 1.59.08 2.39.08 7.91 0 15.5-2.03 22.78-6.08 3.66-2 6.88-4.42 9.67-7.25l-1.25-1.25C655.42 335.22 652.32 337.54 648.8 339.49zM649.39 261.42c-7.32-3.91-14.82-5.86-22.49-5.86-7.76 0-15.28 1.97-22.56 5.9-7.28 3.93-12.96 9.57-17.07 16.92s-6.15 15-6.15 22.96c0 .31.02.61.03.92h1.83c-.01-.31-.03-.61-.03-.92 0-7.67 1.96-15.01 5.9-22.05s9.4-12.44 16.41-16.22c7.01-3.78 14.22-5.68 21.64-5.68 7.37 0 14.58 1.88 21.61 5.64 3.56 1.95 6.76 4.35 9.59 7.18l1.32-1.32C656.49 265.96 653.15 263.47 649.39 261.42zM839.23 296.5c5.81 3.22 11.91 4.83 18.31 4.83 3.66-.05 7.25.88 10.77 2.78s6.25 4.61 8.2 8.13c1.95 3.52 2.93 7.18 2.93 10.99s-.96 7.45-2.89 10.91c-1.93 3.47-4.64 6.17-8.13 8.09-3.49 1.93-7.14 2.89-10.95 2.89v.07c-3.81 0-7.45-.98-10.91-2.93-3.52-1.9-6.24-4.6-8.17-8.09-1.93-3.49-2.89-7.14-2.89-10.95l-3.66.07c0 4.49 1.14 8.76 3.41 12.82 2.27 4.05 5.44 7.2 9.52 9.45 4.08 2.25 8.34 3.37 12.78 3.37v-.07c4.39 0 8.64-1.11 12.74-3.33 4.1-2.22 7.26-5.37 9.48-9.45s3.33-8.34 3.33-12.78c0-4.44-1.14-8.73-3.41-12.85-2.27-4.13-5.46-7.29-9.56-9.49s-8.3-3.3-12.6-3.3c-5.76 0-11.27-1.45-16.52-4.36-5.25-2.91-9.31-6.96-12.2-12.16-2.88-5.2-4.32-10.68-4.32-16.44 0-5.71 1.48-11.21 4.43-16.48s7.06-9.33 12.3-12.16c5.25-2.83 10.66-4.25 16.22-4.25v-.07c5.57 0 10.97 1.42 16.22 4.25 5.25 2.83 9.36 6.88 12.34 12.16.29.63.59 1.25.88 1.83l3.3-1.61c-.29-.68-.63-1.37-1.03-2.05-3.27-5.86-7.83-10.36-13.66-13.51-5.83-3.15-11.85-4.72-18.05-4.72v.07c-6.2 0-12.22 1.58-18.05 4.72-5.84 3.15-10.39 7.65-13.66 13.51-3.27 5.86-4.91 11.96-4.91 18.31 0 6.4 1.61 12.49 4.83 18.27C828.9 288.77 833.42 293.28 839.23 296.5z" class="colorad2a4a svgShape colorStrokead2a4b svgStroke"></path><path fill="#ad2a4a" stroke="#ad2a4b" stroke-miterlimit="10" stroke-width="1.5" d="M847.54 247.21c3.2-1.71 6.51-2.56 9.92-2.56v-.07c3.42 0 6.73.87 9.92 2.6 3.2 1.73 5.7 4.21 7.51 7.43.19.39.39.76.59 1.1l1.61-.81c-.2-.39-.39-.78-.59-1.17-1.95-3.52-4.69-6.23-8.2-8.13s-7.13-2.86-10.84-2.86v.07c-3.71 0-7.32.94-10.84 2.82-3.52 1.88-6.25 4.58-8.2 8.09-1.95 3.52-2.93 7.18-2.93 10.99s.96 7.46 2.89 10.95c1.93 3.49 4.64 6.2 8.13 8.13s7.17 2.89 11.02 2.89c6.2-.05 12.22 1.51 18.05 4.69 5.83 3.17 10.39 7.68 13.66 13.51 3.1 5.54 4.72 11.35 4.88 17.44h1.83c-.16-6.34-1.86-12.43-5.13-18.29-3.44-6.15-8.23-10.89-14.36-14.21-6.13-3.32-12.44-4.98-18.93-4.98-3.52 0-6.88-.89-10.11-2.67s-5.71-4.26-7.47-7.43c-1.76-3.17-2.64-6.52-2.64-10.03 0-3.47.9-6.82 2.71-10.07C841.84 251.4 844.34 248.92 847.54 247.21zM509.64 301.34c0 7.67-1.93 14.98-5.79 21.94-3.86 6.96-9.28 12.37-16.26 16.22-6.98 3.86-14.28 5.79-21.9 5.79s-14.92-1.93-21.9-5.79c-6.98-3.86-12.4-9.26-16.26-16.22-3.86-6.96-5.79-14.27-5.79-21.94 0-7.67 1.96-15.01 5.9-22.05 3.93-7.03 9.4-12.44 16.41-16.22 7.01-3.78 14.22-5.68 21.64-5.68v-1.83c-7.76 0-15.28 1.97-22.56 5.9-7.28 3.93-12.96 9.57-17.07 16.92s-6.15 15-6.15 22.96c0 7.96 2.01 15.56 6.04 22.81 4.03 7.25 9.68 12.89 16.96 16.92 7.27 4.03 14.87 6.04 22.78 6.04s15.5-2.01 22.78-6.04c7.27-4.03 12.93-9.67 16.96-16.92 4.03-7.25 6.04-14.86 6.04-22.81H509.64zM857.47 359.85c-6.27-.01-12.33-1.62-18.16-4.83-5.86-3.22-10.39-7.73-13.59-13.51-3.2-5.79-4.8-11.85-4.8-18.2h-1.83c0 6.69 1.68 13.07 5.05 19.15 3.37 6.08 8.1 10.82 14.21 14.21 6.08 3.38 12.45 5.08 19.12 5.09V359.85z" class="colorad2a4a svgShape colorStrokead2a4b svgStroke"></path><polygon fill="#ad2a4a" stroke="#ad2a4b" stroke-miterlimit="10" stroke-width="1.5" points="309.73 374.58 311.56 374.58 311.56 315.98 370.15 315.98 370.15 314.15 309.73 314.15" class="colorad2a4a svgShape colorStrokead2a4b svgStroke"></polygon><polygon fill="#ad2a4a" stroke="#ad2a4b" stroke-miterlimit="10" stroke-width="1.5" points="296.91 244.65 298.74 244.65 384.8 244.57 384.8 242.74 296.91 242.81" class="colorad2a4a svgShape colorStrokead2a4b svgStroke"></polygon><polygon fill="#ad2a4a" stroke="#ad2a4b" stroke-miterlimit="10" stroke-width="1.5" points="309.66 290.35 370.15 290.35 370.15 286.69 311.56 286.69 311.56 257.39 384.8 257.39 384.8 255.56 309.66 255.63" class="colorad2a4a svgShape colorStrokead2a4b svgStroke"></polygon><polygon fill="#ad2a4a" stroke="#ad2a4b" stroke-miterlimit="10" stroke-width="1.5" points="282.26 374.58 285.93 374.58 285.93 231.83 384.8 231.75 384.8 228.09 282.26 228.09" class="colorad2a4a svgShape colorStrokead2a4b svgStroke"></polygon><path fill="#ad2a4a" stroke="#ad2a4b" stroke-miterlimit="10" stroke-width="1.5" d="M901.85 297.64c-4.59-8.23-10.96-14.55-19.12-18.97-7.24-3.92-14.68-6.1-22.31-6.54v1.82c7.34.4 14.49 2.48 21.46 6.26 7.88 4.27 14.04 10.38 18.46 18.31 4.42 7.94 6.63 16.2 6.63 24.79 0 8.54-2.17 16.74-6.52 24.57-4.35 7.84-10.45 13.92-18.31 18.24-7.86 4.32-16.07 6.48-24.61 6.48v.07c-6.04 0-11.89-1.1-17.56-3.25l-.61 1.81c5.86 2.21 11.92 3.34 18.18 3.34 8.84 0 17.33-2.25 25.49-6.74 8.15-4.49 14.48-10.8 18.97-18.93 4.49-8.13 6.74-16.66 6.74-25.6C908.74 314.42 906.44 305.86 901.85 297.64zM661.54 361.69c-11.04 6.15-22.61 9.23-34.72 9.23-12.01 0-23.54-3.06-34.57-9.19-11.04-6.13-19.62-14.7-25.74-25.71-6.13-11.01-9.19-22.55-9.19-34.61 0-12.16 3.11-23.82 9.34-34.97 6.22-11.16 14.88-19.73 25.96-25.71 9.78-5.28 19.81-8.22 30.08-8.84l-.1-3.66c-10.87.64-21.48 3.74-31.82 9.32-11.67 6.3-20.78 15.32-27.32 27.06-6.54 11.74-9.81 24.01-9.81 36.8 0 12.7 3.22 24.84 9.67 36.44s15.48 20.62 27.1 27.06c11.62 6.45 23.75 9.67 36.4 9.67 12.74 0 24.93-3.22 36.55-9.67 5.81-3.22 10.99-7.1 15.53-11.65l-2.64-2.64C671.97 354.92 667.06 358.61 661.54 361.69zM501.58 237.54c-11.67-6.3-23.66-9.45-35.96-9.45-12.35 0-24.37 3.15-36.04 9.45-11.67 6.3-20.78 15.32-27.32 27.06-6.54 11.74-9.81 24.01-9.81 36.8 0 12.7 3.22 24.84 9.67 36.44s15.48 20.62 27.1 27.06c11.62 6.45 23.75 9.67 36.4 9.67 6.14 0 12.15-.76 18.03-2.26l-1.02-3.52c-5.55 1.4-11.21 2.12-17.01 2.12-12.01 0-23.54-3.06-34.57-9.19-11.04-6.13-19.62-14.7-25.74-25.71-6.13-11.01-9.19-22.55-9.19-34.61 0-12.16 3.11-23.82 9.34-34.97 6.23-11.16 14.88-19.73 25.96-25.71 11.08-5.98 22.49-8.97 34.2-8.97s23.12 2.99 34.2 8.97c11.08 5.98 19.76 14.55 26.04 25.71 6.27 11.16 9.41 22.82 9.41 34.97 0 7.48-1.2 14.76-3.56 21.84l3.51 1.05c2.46-7.42 3.71-15.05 3.71-22.89 0-12.79-3.31-25.06-9.92-36.8C522.39 252.86 513.25 243.84 501.58 237.54z" class="colorad2a4a svgShape colorStrokead2a4b svgStroke"></path><g fill="#ffffff" class="color000 svgShape"><path d="M313.63 449.74c-4.38-1.97-10.46-2.95-18.23-2.95h-12.22c-.71 0-1.28.13-1.73.4-.75.46-1.13 1.1-1.13 1.89v56.08c0 .91.24 1.59.73 2.06.49.46 1.2.7 2.13.7h13.21c5.14 0 9.26-.39 12.38-1.16 3.98-1.02 7.66-2.89 11.02-5.61 7.42-6.02 11.12-14 11.12-23.94 0-6.06-1.56-11.56-4.67-16.49C323.15 455.79 318.94 452.13 313.63 449.74zM323.62 489.79c-1.97 3.87-4.76 7.03-8.37 9.46-2.15 1.44-4.63 2.53-7.44 3.29-2.68.71-6.07 1.06-10.16 1.06h-12.98v-52.46h9.83c4.63 0 8.34.25 11.16.76 2.7.49 5.21 1.34 7.54 2.56 4.27 2.24 7.58 5.37 9.93 9.4 2.35 4.03 3.52 8.48 3.52 13.35C326.64 481.61 325.63 485.8 323.62 489.79zM381.89 486.07H345.3v-34.93h35.63c.69-.18 1.11-.32 1.26-.43.53-.4.8-.96.8-1.69 0-.58-.22-1.09-.65-1.54-.43-.45-.95-.68-1.54-.68h-37.02c-.62 0-1.2.13-1.73.4-.75.46-1.13 1.1-1.13 1.89v36.99h-4.55c-.51.04-.92.18-1.23.4-.55.38-.83.99-.83 1.83.09.51.27.96.53 1.36.49.49 1.04.73 1.66.73h4.42v14.78c0 .88.24 1.57.71 2.04.48.48 1.19.71 2.14.71h37.09c.73-.13 1.21-.31 1.43-.53.46-.35.7-.92.7-1.69 0-.69-.3-1.26-.9-1.73-.42-.24-.85-.37-1.29-.37H345.3v-13.21h36.72c1.37-.33 2.06-1.03 2.06-2.09 0-.55-.25-1.11-.76-1.66C382.85 486.26 382.38 486.07 381.89 486.07zM435.38 479.73c-3.03-2.44-7.79-4.16-14.28-5.18-2.04-.29-3.69-.51-4.95-.66-5.89-.75-9.74-1.58-11.55-2.49-3.59-1.79-5.38-4.6-5.38-8.43 0-4.03 1.84-7.18 5.51-9.46 3.14-1.95 6.85-2.91 11.12-2.89 3.43.02 6.56.58 9.4 1.68 2.83 1.1 5.2 2.59 7.11 4.5l.2.2c.27.27.58.45.93.56.18.09.5.13.96.13.58-.07 1.05-.28 1.43-.63.38-.35.56-.91.56-1.66-.07-.53-.24-.94-.53-1.23l-.03-.07c-.29-.46-1.1-1.18-2.42-2.16-1.53-1.13-2.82-1.96-3.88-2.49-2.08-1.04-4.24-1.81-6.47-2.32-2.39-.53-4.83-.8-7.3-.8-6.02 0-10.98 1.54-14.88 4.62-4.01 3.17-6 7.21-5.98 12.12.02 2.57.66 4.9 1.93 7.01 1.73 2.83 4.47 4.88 8.23 6.14 2.06.69 5.53 1.34 10.43 1.96 2.61.33 4.48.58 5.61.73 9.96 1.39 14.93 5.33 14.91 11.82-.02 3.83-1.7 6.97-5.05 9.43-3.5 2.57-8.2 3.85-14.11 3.85-4.56 0-8.75-.81-12.58-2.42-3.56-1.51-6.36-3.56-8.4-6.18l-.23-.3c-.11-.13-.3-.32-.56-.56-.49-.2-.85-.3-1.1-.3-.71 0-1.26.27-1.66.8-.33.44-.5 1.02-.5 1.73l.46 1 .13.23c.38.64 1.28 1.62 2.72 2.92 1.35 1.22 2.87 2.31 4.55 3.29 4.78 2.77 10.26 4.15 16.44 4.15 6.42 0 11.83-1.31 16.24-3.92 5.29-3.14 7.94-7.74 7.94-13.78C440.33 486 438.68 482.36 435.38 479.73zM452.18 446.52c-.58 0-1.08.22-1.53.66-.44.44-.66.96-.66 1.56v57.34c.18.69.33 1.13.46 1.33.58.53 1.13.8 1.66.8.71 0 1.25-.25 1.63-.76.4-.4.6-.89.6-1.46v-57.34c-.16-.71-.37-1.2-.63-1.46C453.27 446.74 452.76 446.52 452.18 446.52zM522.17 486.2c-.42-.24-.87-.37-1.36-.37h-34.03c-.55.07-1 .23-1.33.5-.51.42-.75 1.01-.73 1.76.02.6.23 1.06.63 1.39.38.44.9.66 1.56.66h30.68c-2.37 4.36-5.5 7.74-9.4 10.13-3.96 2.43-8.41 3.65-13.35 3.65-3.43 0-6.77-.7-10.03-2.09-6.86-2.92-11.7-7.77-14.51-14.54-1.39-3.34-2.08-6.71-2.06-10.09.02-3.94.89-7.75 2.59-11.42 1.75-3.76 4.13-6.88 7.14-9.36 4.78-3.96 10.4-5.94 16.87-5.94 3.01 0 5.71.41 8.08 1.23 2.38.82 5.13 2.39 8.25 4.71.51.51 1.12.76 1.83.76.6-.13 1.05-.38 1.34-.75s.45-.92.45-1.68c-.13-.42-.25-.7-.37-.83-.2-.31-.35-.51-.46-.6l-.27-.33c-4.94-4.56-11.22-6.83-18.86-6.81-4.23.02-8.19.8-11.89 2.32-3.85 1.59-7.15 3.81-9.89 6.64-6.15 6.35-9.21 13.7-9.16 22.05.04 8.54 3.11 15.82 9.2 21.81 3.01 2.97 6.35 5.22 10.03 6.77 3.81 1.62 7.71 2.42 11.72 2.42 9.56 0 17.37-3.76 23.41-11.29.91-1.15 1.88-2.58 2.92-4.28 1.31-2.19 1.96-3.72 1.96-4.58S522.82 486.58 522.17 486.2zM578.72 446.46c-.64.13-1.12.4-1.44.81-.32.41-.48.9-.48 1.48v51.07l-40.84-52.1c-.04-.04-.1-.11-.17-.2.09.11.13.07.13-.13-.8-.62-1.53-.93-2.19-.93-.71.13-1.2.4-1.48.81-.28.41-.42.92-.42 1.54v57.21c.07.64.2 1.1.4 1.36.42.55.97.83 1.66.83.71 0 1.25-.25 1.63-.76.4-.4.6-.89.6-1.46v-51.1l40.64 51.9c.13.15.23.27.3.33.53.73 1.17 1.1 1.93 1.1.84 0 1.42-.33 1.73-1 .24-.35.37-.81.37-1.36v-57.21c-.11-.73-.32-1.24-.63-1.53C579.98 446.68 579.41 446.46 578.72 446.46zM652.83 479.73c-3.03-2.44-7.79-4.16-14.28-5.18-2.04-.29-3.69-.51-4.95-.66-5.89-.75-9.74-1.58-11.55-2.49-3.59-1.79-5.38-4.6-5.38-8.43 0-4.03 1.84-7.18 5.51-9.46 3.14-1.95 6.85-2.91 11.12-2.89 3.43.02 6.56.58 9.4 1.68 2.83 1.1 5.2 2.59 7.11 4.5l.2.2c.27.27.58.45.93.56.18.09.5.13.96.13.58-.07 1.05-.28 1.43-.63.38-.35.56-.91.56-1.66-.07-.53-.24-.94-.53-1.23l-.03-.07c-.29-.46-1.1-1.18-2.42-2.16-1.53-1.13-2.82-1.96-3.88-2.49-2.08-1.04-4.24-1.81-6.47-2.32-2.39-.53-4.83-.8-7.3-.8-6.02 0-10.98 1.54-14.88 4.62-4.01 3.17-6 7.21-5.98 12.12.02 2.57.66 4.9 1.93 7.01 1.73 2.83 4.47 4.88 8.24 6.14 2.06.69 5.53 1.34 10.43 1.96 2.61.33 4.48.58 5.61.73 9.96 1.39 14.93 5.33 14.91 11.82-.02 3.83-1.7 6.97-5.05 9.43-3.5 2.57-8.2 3.85-14.11 3.85-4.56 0-8.75-.81-12.58-2.42-3.56-1.51-6.36-3.56-8.4-6.18l-.23-.3c-.11-.13-.3-.32-.56-.56-.49-.2-.85-.3-1.1-.3-.71 0-1.26.27-1.66.8-.33.44-.5 1.02-.5 1.73l.46 1 .13.23c.38.64 1.29 1.62 2.72 2.92 1.35 1.22 2.87 2.31 4.55 3.29 4.78 2.77 10.26 4.15 16.44 4.15 6.42 0 11.83-1.31 16.24-3.92 5.29-3.14 7.94-7.74 7.94-13.78C657.78 486 656.13 482.36 652.83 479.73zM704.19 446.79h-39.18c-.64.07-1.07.21-1.29.43-.53.42-.8.99-.8 1.69 0 1.48.73 2.22 2.19 2.22h17.37v54.88c.07.62.21 1.07.43 1.36.42.55.97.83 1.66.83.66 0 1.2-.25 1.59-.76.4-.4.6-.89.6-1.46v-54.85l17.56-.03c.51-.07.94-.24 1.29-.53.51-.51.76-1.05.76-1.63-.11-.75-.31-1.27-.6-1.56C705.39 446.99 704.86 446.79 704.19 446.79zM762.3 446.52c-.62 0-1.14.22-1.56.66-.42.44-.63.96-.63 1.56v34c0 3.45-.38 6.34-1.13 8.67-1.55 4.8-5.13 8.42-10.72 10.86-2.75 1.2-5.71 1.79-8.9 1.79-3.23 0-6.19-.59-8.87-1.76-5.56-2.46-9.13-6.11-10.72-10.96-.73-2.24-1.1-5.1-1.1-8.6v-34.1c-.13-.73-.33-1.23-.6-1.49-.44-.42-.95-.63-1.53-.63-.6 0-1.12.22-1.56.66-.44.44-.66.96-.66 1.56v34.2c0 3.81.43 7.02 1.29 9.63 2.04 6.2 6.35 10.72 12.95 13.58 3.36 1.46 6.96 2.19 10.79 2.19 7.92 0 14.46-2.86 19.62-8.57 3.61-3.98 5.41-9.6 5.41-16.83v-34.27c-.07-.64-.23-1.12-.5-1.43C763.5 446.77 762.96 446.52 762.3 446.52zM810.94 449.74c-4.38-1.97-10.46-2.95-18.23-2.95H780.5c-.71 0-1.28.13-1.73.4-.75.46-1.13 1.1-1.13 1.89v56.08c0 .91.24 1.59.73 2.06.49.46 1.2.7 2.13.7h13.21c5.13 0 9.26-.39 12.38-1.16 3.98-1.02 7.66-2.89 11.02-5.61 7.42-6.02 11.12-14 11.12-23.94 0-6.06-1.56-11.56-4.67-16.49C820.47 455.79 816.26 452.13 810.94 449.74zM820.94 489.79c-1.97 3.87-4.76 7.03-8.37 9.46-2.15 1.44-4.63 2.53-7.44 3.29-2.68.71-6.07 1.06-10.16 1.06h-12.98v-52.46h9.83c4.63 0 8.34.25 11.16.76 2.7.49 5.21 1.34 7.54 2.56 4.27 2.24 7.58 5.37 9.93 9.4 2.35 4.03 3.52 8.48 3.52 13.35C823.96 481.61 822.95 485.8 820.94 489.79zM840.23 446.52c-.58 0-1.08.22-1.53.66-.44.44-.66.96-.66 1.56v57.34c.18.69.33 1.13.46 1.33.58.53 1.13.8 1.66.8.71 0 1.25-.25 1.63-.76.4-.4.6-.89.6-1.46v-57.34c-.16-.71-.37-1.2-.63-1.46C841.31 446.74 840.8 446.52 840.23 446.52zM911.61 465.25c-3.28-7.97-8.84-13.55-16.7-16.73-3.85-1.57-7.84-2.35-11.95-2.32-8.66.04-15.95 3.03-21.88 8.96-6.09 6.09-9.13 13.44-9.13 22.05 0 8.46 3.03 15.74 9.1 21.85 6.06 6.11 13.37 9.16 21.91 9.16 4.6 0 9.03-1 13.26-3 4.24-2 7.82-4.79 10.74-8.35 4.69-5.73 7.03-12.29 7.01-19.66C913.95 473.02 913.16 469.03 911.61 465.25zM901.85 496c-5.31 5.29-11.61 7.91-18.89 7.87-7.33-.04-13.6-2.66-18.83-7.84-2.5-2.48-4.44-5.37-5.81-8.67-1.35-3.23-2.03-6.62-2.03-10.16 0-3.92.87-7.73 2.62-11.44 1.75-3.71 4.13-6.8 7.14-9.28 4.94-4.03 10.57-6.03 16.9-6.01 3.7.02 7.12.69 10.26 1.99 3.34 1.39 6.23 3.3 8.65 5.73s4.32 5.29 5.68 8.6c1.36 3.31 2.03 6.78 2.01 10.41C909.51 484.66 906.94 490.93 901.85 496z" fill="#ffffff" class="color000 svgShape"></path></g><line x1="242.26" x2="948.74" y1="411.67" y2="411.67" stroke="#ffffff" stroke-miterlimit="10" stroke-width="4" class="colorStroke000 svgStroke"></line></svg></g></svg>